<?xml version="1.0" encoding="utf-8"?>
<!-- Generator: Adobe Illustrator 22.0.1, SVG Export Plug-In . SVG Version: 6.00 Build 0)  -->
<svg version="1.1" id="beer_1_" xmlns="http://www.w3.org/2000/svg" xmlns:xlink="http://www.w3.org/1999/xlink" x="0px" y="0px"
	 viewBox="0 0 500 500" style="enable-background:new 0 0 500 500;" xml:space="preserve">
<style type="text/css">
	.st0{fill:#DBDBDB;}
	.st1{fill:#BCBCBC;}
	.st2{fill:#ADADAD;}
	.st3{fill:#919191;}
	.st4{fill:#FFE7B3;}
	.st5{fill:#E0CBA0;}
	.st6{fill:#FFCA36;}
	.st7{fill:#E8B434;}
	.st8{fill:none;stroke:#000000;stroke-width:14.6184;stroke-linecap:round;stroke-linejoin:round;}
</style>
<title>beer</title>
<desc>Created with Sketch.</desc>
<g id="Party">
	<g id="beer">
		<g transform="translate(70.000000, 8.000000)">
			<path id="Fill-1" class="st0" d="M262.9,94.5h-84.6v141.4c0,12.1-9.8,21.9-21.8,21.9h0c-12.1,0-21.8-9.8-21.8-21.9v-79
				c0-12.1-9.8-21.9-21.8-21.9c-12.1,0-21.8,9.8-21.8,21.9v49.2c0,12.1-9.8,21.9-21.8,21.9s-21.8-9.8-21.8-21.9V94.5h-47v327.4
				c0,34,27.5,61.5,61.5,61.5h139.8c34,0,61.5-27.6,61.5-61.5V94.5H262.9z"/>
			<path id="Fill-3" class="st1" d="M262.9,94.5h-26.6v327.4c0,34-27.5,61.5-61.5,61.5h26.8c34,0,61.5-27.6,61.5-61.5V94.5H262.9z"
				/>
			<path id="Fill-5" class="st2" d="M323.9,127.1h-60.8v39.2h47.6c6.9,0,12.5,5.6,12.5,12.5v151.4c0,6.9-5.6,12.5-12.5,12.5h-47.6
				v39.2h60.8c19.4,0,35.2-15.8,35.2-35.2V162.3C359.1,142.9,343.3,127.1,323.9,127.1"/>
			<polygon id="Fill-7" class="st3" points="263.1,166.3 290.5,166.3 290.5,127.1 263.1,127.1 			"/>
			<polygon id="Fill-9" class="st3" points="263.1,381.7 290.5,381.7 290.5,342.6 263.1,342.6 			"/>
			<path id="Fill-10" class="st4" d="M216.6,52.3c-0.5,0-1,0-1.5,0c-10.3-13.5-26.6-22.2-44.9-22.2c-2.2,0-4.4,0.1-6.5,0.4
				c-9.5-18-28.3-30.2-50.1-30.2C88.9,0.3,68,16,60.2,38c-1.1-0.1-2.2-0.1-3.3-0.1c-31.3,0-56.6,25.4-56.6,56.6h47v111.6
				c0,12.1,9.8,21.9,21.8,21.9S91,218.2,91,206.1V157c0-12.1,9.8-21.9,21.8-21.9c12.1,0,21.8,9.8,21.8,21.9v79
				c0,12.1,9.8,21.9,21.8,21.9h0c12.1,0,21.8-9.8,21.8-21.9V94.5h84.6C260.7,70.8,240.8,52.3,216.6,52.3"/>
			<path id="Fill-11" class="st5" d="M96.2,21.4c21.7,0,40.6,12.3,50.1,30.2c2.1-0.2,4.3-0.4,6.5-0.4c18.3,0,34.6,8.7,44.9,22.2
				c0.5,0,1,0,1.5,0c16.3,0,30.6,8.4,38.9,21.1h24.6c-2.2-23.7-22.1-42.2-46.3-42.2c-0.5,0-1,0-1.5,0
				c-10.3-13.5-26.6-22.2-44.9-22.2c-2.2,0-4.4,0.1-6.5,0.4c-9.5-18-28.3-30.2-50.1-30.2c-22.5,0-42,13.2-51.1,32.3
				C71.9,25.5,83.6,21.4,96.2,21.4"/>
			<path id="Fill-12" class="st6" d="M178.3,166.2v69.7c0,12.1-9.8,21.9-21.8,21.9h0c-12.1,0-21.8-9.8-21.8-21.9v-69.7H91v39.9
				c0,12.1-9.8,21.9-21.8,21.9h0c-12.1,0-21.8-9.8-21.8-21.9v-39.9h-47v255.7c0,34,27.5,61.5,61.5,61.5h139.8
				c34,0,61.5-27.6,61.5-61.5V166.2H178.3z"/>
			<path id="Fill-13" class="st7" d="M236.3,166.2v255.7c0,34-27.5,61.5-61.5,61.5h26.8c34,0,61.5-27.6,61.5-61.5V166.2H236.3z"/>
			<path id="Stroke-14" class="st8" d="M216.6,52.3c-0.5,0-1,0-1.5,0c-10.3-13.5-26.6-22.2-44.9-22.2c-2.2,0-4.4,0.1-6.5,0.4
				c-9.5-18-28.3-30.2-50.1-30.2C88.9,0.3,68,16,60.2,38c-1.1-0.1-2.2-0.1-3.3-0.1c-31.3,0-56.6,25.4-56.6,56.6h47v111.6
				c0,12.1,9.8,21.9,21.8,21.9S91,218.2,91,206.1V157c0-12.1,9.8-21.9,21.8-21.9c12.1,0,21.8,9.8,21.8,21.9v79
				c0,12.1,9.8,21.9,21.8,21.9h0c12.1,0,21.8-9.8,21.8-21.9V94.5h84.6C260.7,70.8,240.8,52.3,216.6,52.3z"/>
			<path id="Stroke-15" class="st8" d="M262.9,94.5h-84.6v141.4c0,12.1-9.8,21.9-21.8,21.9h0c-12.1,0-21.8-9.8-21.8-21.9v-79
				c0-12.1-9.8-21.9-21.8-21.9c-12.1,0-21.8,9.8-21.8,21.9v49.2c0,12.1-9.8,21.9-21.8,21.9s-21.8-9.8-21.8-21.9V94.5h-47v327.4
				c0,34,27.5,61.5,61.5,61.5h139.8c34,0,61.5-27.6,61.5-61.5V94.5H262.9z"/>
			<path id="Stroke-16" class="st8" d="M178.3,166.2v69.7c0,12.1-9.8,21.9-21.8,21.9h0c-12.1,0-21.8-9.8-21.8-21.9v-69.7H91v39.9
				c0,12.1-9.8,21.9-21.8,21.9h0c-12.1,0-21.8-9.8-21.8-21.9v-39.9h-47v255.7c0,34,27.5,61.5,61.5,61.5h139.8
				c34,0,61.5-27.6,61.5-61.5V166.2H178.3z"/>
			<path id="Stroke-17" class="st8" d="M323.9,127.1h-60.8v39.2h47.6c6.9,0,12.5,5.6,12.5,12.5v151.4c0,6.9-5.6,12.5-12.5,12.5
				h-47.6v39.2h60.8c19.4,0,35.2-15.8,35.2-35.2V162.3C359.1,142.9,343.3,127.1,323.9,127.1z"/>
		</g>
	</g>
</g>
</svg>
